<svg width="20" height="20" viewBox="0 0 20 20" fill="none" xmlns="http://www.w3.org/2000/svg">
<path d="M2.22222 4.44444C3.4495 4.44444 4.44444 3.4495 4.44444 2.22222C4.44444 0.994922 3.4495 0 2.22222 0C0.994922 0 0 0.994922 0 2.22222C0 3.4495 0.994922 4.44444 2.22222 4.44444Z" fill="currentColor"/>
<path d="M10 4.44444C11.2273 4.44444 12.2222 3.4495 12.2222 2.22222C12.2222 0.994922 11.2273 0 10 0C8.77272 0 7.77778 0.994922 7.77778 2.22222C7.77778 3.4495 8.77272 4.44444 10 4.44444Z" fill="currentColor"/>
<path d="M17.7778 4.44444C19.0051 4.44444 20 3.4495 20 2.22222C20 0.994922 19.0051 0 17.7778 0C16.5505 0 15.5556 0.994922 15.5556 2.22222C15.5556 3.4495 16.5505 4.44444 17.7778 4.44444Z" fill="currentColor"/>
<path d="M2.22222 12.2222C3.4495 12.2222 4.44444 11.2273 4.44444 10C4.44444 8.77272 3.4495 7.77778 2.22222 7.77778C0.994922 7.77778 0 8.77272 0 10C0 11.2273 0.994922 12.2222 2.22222 12.2222Z" fill="currentColor"/>
<path d="M10 12.2222C11.2273 12.2222 12.2222 11.2273 12.2222 10C12.2222 8.77272 11.2273 7.77778 10 7.77778C8.77272 7.77778 7.77778 8.77272 7.77778 10C7.77778 11.2273 8.77272 12.2222 10 12.2222Z" fill="currentColor"/>
<path d="M17.7778 12.2222C19.0051 12.2222 20 11.2273 20 10C20 8.77272 19.0051 7.77778 17.7778 7.77778C16.5505 7.77778 15.5556 8.77272 15.5556 10C15.5556 11.2273 16.5505 12.2222 17.7778 12.2222Z" fill="currentColor"/>
<path d="M2.22222 20C3.4495 20 4.44444 19.0051 4.44444 17.7778C4.44444 16.5505 3.4495 15.5556 2.22222 15.5556C0.994922 15.5556 0 16.5505 0 17.7778C0 19.0051 0.994922 20 2.22222 20Z" fill="currentColor"/>
<path d="M10 20C11.2273 20 12.2222 19.0051 12.2222 17.7778C12.2222 16.5505 11.2273 15.5556 10 15.5556C8.77272 15.5556 7.77778 16.5505 7.77778 17.7778C7.77778 19.0051 8.77272 20 10 20Z" fill="currentColor"/>
<path d="M17.7778 20C19.0051 20 20 19.0051 20 17.7778C20 16.5505 19.0051 15.5556 17.7778 15.5556C16.5505 15.5556 15.5556 16.5505 15.5556 17.7778C15.5556 19.0051 16.5505 20 17.7778 20Z" fill="currentColor"/>
</svg>
