<svg width="20" height="20" viewBox="0 0 20 20" fill="currentColor" xmlns="http://www.w3.org/2000/svg">
<path id="Vector" fill-rule="evenodd" clip-rule="evenodd" d="M9.99998 0C11.8625 0.0212538 13.5451 0.479007 15.0478 1.37326C16.5326 2.24966 17.7677 3.49232 18.635 4.98242C19.5238 6.49416 19.9788 8.18697 20 10.0608C19.9472 12.6247 19.1385 14.8146 17.574 16.6303C16.0094 18.446 14.0056 19.5694 11.9312 20V12.8116H13.8924L14.3359 9.98676H11.3663V8.13654C11.3498 7.75298 11.4711 7.37618 11.7082 7.07427C11.9457 6.77153 12.3639 6.61241 12.9628 6.59692H14.7561V4.1224C14.7304 4.11412 14.4862 4.08138 14.0236 4.02419C13.499 3.96281 12.9715 3.93002 12.4433 3.92598C11.2479 3.9315 10.3025 4.26869 9.60713 4.93758C8.91171 5.60628 8.55647 6.57374 8.54141 7.83997V9.98676H6.28153V12.8116H8.54141V20C5.9944 19.5694 3.99057 18.446 2.426 16.6303C0.861429 14.8146 0.0527926 12.6247 0 10.0608C0.0211219 8.18688 0.476107 6.49407 1.36496 4.98242C2.2323 3.49232 3.46741 2.24966 4.95219 1.37326C6.45484 0.47918 8.13744 0.0214259 9.99998 0Z" fill="white"/>
</svg>
