<svg width="20" height="20" viewBox="0 0 20 20" fill="currentColor" xmlns="http://www.w3.org/2000/svg">
<g id="Subtract">
<path d="M9.74329 10.6192L9.73858 10.6007L12.4329 14.3808H13.7706L10.4734 9.7597L10.0777 9.20055L7.55299 5.64695H6.19642L9.74329 10.6192Z" fill="white"/>
<path fill-rule="evenodd" clip-rule="evenodd" d="M4.4443 1.6853C6.08879 0.58649 8.02219 0 10 0C12.6522 0 15.1957 1.05357 17.0711 2.92893C18.9464 4.80429 20 7.34784 20 10C20 11.9778 19.4135 13.9112 18.3147 15.5557C17.2159 17.2002 15.6541 18.4819 13.8268 19.2388C11.9996 19.9957 9.98891 20.1937 8.0491 19.8078C6.10929 19.422 4.32746 18.4696 2.92894 17.0711C1.53041 15.6725 0.578004 13.8907 0.192152 11.9509C-0.1937 10.0111 0.00433281 8.00042 0.761209 6.17316C1.51809 4.34591 2.79981 2.78412 4.4443 1.6853ZM10.9545 9.22676L14.675 5H13.7894L10.5488 8.69686L7.9675 5H5L8.90014 10.5453L5 15H5.88083L9.29581 11.1044L12.0231 15H15L10.9545 9.22676Z" fill="white"/>
</g>
</svg>
