<svg width="20" height="20" viewBox="0 0 20 20" fill="currentColor" xmlns="http://www.w3.org/2000/svg">
<g id="Vector">
<path d="M10 12.1C11.1598 12.1 12.1 11.1598 12.1 10C12.1 8.8402 11.1598 7.9 10 7.9C8.8402 7.9 7.9 8.8402 7.9 10C7.9 11.1598 8.8402 12.1 10 12.1Z" fill="white"/>
<path d="M10 0C4.47716 0 0 4.47716 0 10C0 15.5228 4.47716 20 10 20C15.5228 20 20 15.5228 20 10C20 4.47716 15.5228 0 10 0ZM16.1783 12.5416C16.1303 13.4923 15.8632 14.4298 15.1703 15.1153C14.4708 15.8073 13.5288 16.0652 12.5689 16.1127H7.43112C6.47112 16.0652 5.52928 15.8075 4.82972 15.1153C4.13684 14.4298 3.86972 13.4923 3.82172 12.5416V7.4584C3.86972 6.50768 4.13688 5.57016 4.82972 4.88464C5.52928 4.19264 6.47124 3.9348 7.43112 3.88732H12.5689C13.5289 3.9348 14.4707 4.19252 15.1703 4.88464C15.8632 5.57016 16.1303 6.50768 16.1783 7.4584L16.1783 12.5416Z" fill="white"/>
<path d="M12.504 5.04553C11.2526 5.01121 8.74776 5.01121 7.49632 5.04553C6.84508 5.06341 6.1068 5.22552 5.6428 5.72112C5.16064 6.23628 4.97844 6.85868 4.95996 7.55496C4.92748 8.77704 4.95996 12.445 4.95996 12.445C4.98112 13.1412 5.16064 13.7637 5.6428 14.2789C6.1068 14.7746 6.84508 14.9366 7.49632 14.9545C8.74776 14.9888 11.2526 14.9888 12.504 14.9545C13.1552 14.9366 13.8935 14.7745 14.3575 14.2789C14.8397 13.7637 15.0219 13.1413 15.0404 12.445V7.55496C15.0219 6.85868 14.8397 6.23628 14.3575 5.72112C13.8934 5.22536 13.1551 5.06341 12.504 5.04553ZM10 13.255C9.35622 13.255 8.7269 13.0641 8.19162 12.7064C7.65634 12.3488 7.23914 11.8404 6.99277 11.2456C6.74641 10.6509 6.68195 9.99639 6.80754 9.36499C6.93314 8.73358 7.24315 8.15359 7.69837 7.69837C8.15359 7.24315 8.73357 6.93314 9.36498 6.80755C9.99639 6.68195 10.6509 6.74641 11.2456 6.99278C11.8404 7.23914 12.3488 7.65634 12.7064 8.19162C13.0641 8.7269 13.255 9.35623 13.255 10C13.255 10.8633 12.9121 11.6912 12.3016 12.3016C11.6912 12.9121 10.8633 13.255 10 13.255ZM13.2688 7.41688C13.1401 7.41685 13.0142 7.37865 12.9072 7.30709C12.8002 7.23554 12.7168 7.13386 12.6675 7.0149C12.6183 6.89594 12.6054 6.76505 12.6305 6.63878C12.6557 6.51251 12.7177 6.39653 12.8087 6.3055C12.8998 6.21447 13.0158 6.15249 13.1421 6.12738C13.2683 6.10228 13.3992 6.11518 13.5182 6.16445C13.6371 6.21373 13.7388 6.29717 13.8103 6.40423C13.8818 6.51128 13.92 6.63714 13.92 6.76588C13.92 6.85139 13.9032 6.93606 13.8704 7.01505C13.8377 7.09404 13.7897 7.16582 13.7293 7.22627C13.6688 7.28672 13.597 7.33467 13.518 7.36738C13.439 7.40008 13.3543 7.41691 13.2688 7.41688Z" fill="white"/>
</g>
</svg>
