<svg width="24" height="24" viewBox="0 0 24 24" fill="none" xmlns="http://www.w3.org/2000/svg">
<mask id="mask0_1188_1384" style="mask-type:alpha" maskUnits="userSpaceOnUse" x="0" y="0" width="24" height="24">
<rect width="24" height="24" fill="#D9D9D9"/>
</mask>
<g mask="url(#mask0_1188_1384)">
<path d="M20.6774 3.94316L19.5344 4.19845C19.5169 4.18138 19.4979 4.16533 19.4757 4.15299L18.0198 3.34349C17.9539 3.23816 17.84 3.17336 17.7172 3.17522L16.1516 2.30482C16.1377 2.29577 16.1234 2.28795 16.1086 2.28096L15.1214 1.7321V0.286532C15.1214 0.193136 15.0775 0.105703 15.0039 0.0520105C14.9301 -0.00168174 14.8358 -0.0146384 14.7513 0.0170421L3.24744 4.32641C3.21153 4.33978 3.18136 4.36241 3.15458 4.38833C3.0629 4.45684 3.00496 4.56504 3.00496 4.68415L3 21.3327C2.9998 21.4612 3.06449 21.5803 3.17025 21.6472L6.80863 23.9461C6.86538 23.9819 6.92927 24 6.99336 24C7.03166 24 7.06936 23.9911 7.10627 23.9782L20.8018 21.0591C20.9186 21.0272 21 20.9175 21 20.7924V4.21244C20.9998 4.03676 20.843 3.90592 20.6774 3.94316ZM14.7211 2.16021L15.2224 2.43895L5.02615 5.2941C4.995 5.30274 4.96702 5.31674 4.94063 5.33278L4.5279 5.04827L14.7211 2.16021ZM6.63818 22.9763L3.70998 21.1263L3.71474 5.37145L6.63818 7.38748V22.9763ZM6.05857 6.1034L5.71231 5.86456L16.0532 2.96888C16.0784 2.96189 16.1018 2.9518 16.124 2.93987L16.9001 3.37126L6.05857 6.1034ZM18.1762 15.2582C18.1762 15.4142 18.0738 15.5473 17.9275 15.5818L9.72512 17.5331C9.70111 17.5388 9.67671 17.5417 9.6525 17.5417C9.47629 17.5417 9.33303 17.3926 9.33303 17.2093V12.1988C9.33303 12.0429 9.43522 11.9098 9.58166 11.8752L17.7841 9.92419C17.8083 9.91843 17.8327 9.91555 17.8569 9.91555C18.0329 9.91555 18.1762 10.0645 18.1762 10.2478V15.2582ZM7.2537 6.94067C7.23485 6.91948 7.21362 6.90014 7.18981 6.88369L6.8632 6.65843L17.8065 3.90078C17.8162 3.89831 17.8248 3.89399 17.8339 3.8907L18.7161 4.38113L7.2537 6.94067Z" fill="black"/>
</g>
</svg>
