<svg width="50" height="50" viewBox="0 0 50 50" fill="none" xmlns="http://www.w3.org/2000/svg">
<path d="M39.2458 22.9763H15.3494L25.594 12.2546C26.2548 11.563 26.2548 10.4524 25.594 9.76076L25.3732 9.52971C24.6983 8.82343 23.5935 8.82343 22.9186 9.52971L9.80714 23.2517C9.32172 23.5628 9 24.1069 9 24.7263V25.1329C9 25.7723 9.34294 26.3317 9.85492 26.637L23.0743 40.472C23.7492 41.1782 24.854 41.1782 25.5289 40.472L25.7497 40.2409C26.4105 39.5493 26.4105 38.4387 25.7497 37.747L15.3689 26.8829H39.2458C40.2123 26.8829 40.9958 26.0994 40.9958 25.1329V24.7263C40.9958 23.7598 40.2123 22.9763 39.2458 22.9763Z" fill="black" stroke="black"/>
</svg>
