<svg width="20" height="20" viewBox="0 0 20 20" fill="currentColor" xmlns="http://www.w3.org/2000/svg">
<path d="M10 0C8.02219 0 6.08879 0.58649 4.4443 1.6853C2.79981 2.78412 1.51809 4.3459 0.761209 6.17316C0.00433282 8.00042 -0.1937 10.0111 0.192152 11.9509C0.578004 13.8907 1.53041 15.6725 2.92894 17.0711C4.32746 18.4696 6.10929 19.422 8.0491 19.8078C9.98891 20.1937 11.9996 19.9957 13.8268 19.2388C15.6541 18.4819 17.2159 17.2002 18.3147 15.5557C19.4135 13.9112 20 11.9778 20 10C20 7.34783 18.9464 4.80429 17.0711 2.92893C15.1957 1.05357 12.6522 0 10 0ZM14.5079 8.88552C13.6158 8.98421 12.8513 8.63158 12.0868 8.18158C12.0868 8.25526 12.1092 10.5395 12.0711 11.6289C12.0329 12.7487 11.6329 13.7342 10.7553 14.4697C8.89474 16.0316 6.25395 15.1882 5.62369 12.8C5.28158 11.4987 5.57895 10.3263 6.6 9.39868C7.175 8.87237 7.88421 8.63816 8.64474 8.54079C8.8079 8.51973 8.97237 8.51052 9.14869 8.49473V10.2632C8.925 10.3184 8.69869 10.3671 8.47632 10.4329C8.32205 10.4774 8.17158 10.5342 8.02632 10.6026C7.82367 10.6938 7.64472 10.8303 7.50335 11.0018C7.36197 11.1732 7.26196 11.3749 7.21107 11.5911C7.16018 11.8074 7.15977 12.0325 7.20987 12.249C7.25998 12.4655 7.35925 12.6675 7.5 12.8395C7.66926 13.0735 7.89946 13.2566 8.16556 13.3689C8.43166 13.4812 8.72347 13.5183 9.00921 13.4763C9.58421 13.4066 9.94474 13.0447 10.1579 12.525C10.3053 12.1137 10.3692 11.6771 10.3461 11.2408C10.3382 9.09342 10.3382 6.94737 10.3342 4.8C10.336 4.77791 10.3391 4.75595 10.3434 4.73421H12.0605C12.2526 6.17105 12.9816 7.08158 14.5079 7.21052V8.88552Z" fill="white"/>
</svg>
