<svg width="16" height="16" viewBox="0 0 16 16" fill="none" xmlns="http://www.w3.org/2000/svg">
<path id="Vector" d="M10.8183 3.23044L0.387366 13.6614C0.135999 13.9217 -0.00309194 14.2702 5.2166e-05 14.6321C0.00319627 14.9939 0.148323 15.34 0.404175 15.5958C0.660027 15.8517 1.00613 15.9968 1.36795 16C1.72976 16.0031 2.07834 15.864 2.3386 15.6126L12.7696 5.18167C12.8082 5.14323 12.8574 5.1171 12.9109 5.10659C12.9645 5.09608 13.0199 5.10166 13.0702 5.12263C13.1206 5.14359 13.1636 5.179 13.1938 5.22438C13.224 5.26977 13.2402 5.32309 13.2401 5.37762V13.7994C13.2402 14.1653 13.3856 14.5163 13.6444 14.775C13.9032 15.0338 14.2541 15.1791 14.6201 15.1791C14.986 15.1791 15.337 15.0338 15.5957 14.775C15.8545 14.5163 15.9999 14.1653 16 13.7994V2.75988C16 2.02791 15.7092 1.32593 15.1917 0.80835C14.6741 0.290772 13.9721 0 13.2401 0H2.20061C1.83466 5.60238e-05 1.48372 0.145467 1.22498 0.40425C0.966234 0.663032 0.820877 1.01399 0.820877 1.37994C0.820877 1.74589 0.966234 2.09685 1.22498 2.35563C1.48372 2.61441 1.83466 2.75982 2.20061 2.75988H10.6224C10.6769 2.75984 10.7302 2.77595 10.7756 2.80619C10.821 2.83642 10.8564 2.87943 10.8774 2.92977C10.8983 2.98011 10.9039 3.03554 10.8934 3.08905C10.8829 3.14256 10.8568 3.19176 10.8183 3.23044Z" fill="currentColor"/>
</svg>
